<svg width="39" height="39" viewBox="0 0 39 27" fill="none" xmlns="http://www.w3.org/2000/svg">
<path d="M14.3504 21.472C14.3504 21.808 13.5984 21.976 12.0944 21.976C10.5904 21.976 9.77444 21.856 9.64644 21.616L5.63844 14.128V21.592C5.63844 21.88 4.89444 22.024 3.40644 22.024C1.93444 22.024 1.19844 21.88 1.19844 21.592V5.536C1.19844 5.296 1.83044 5.176 3.09444 5.176C3.59044 5.176 4.16644 5.224 4.82244 5.32C5.49444 5.4 5.90244 5.56 6.04644 5.8L9.88644 13.192V5.656C9.88644 5.352 10.6304 5.2 12.1184 5.2C13.6064 5.2 14.3504 5.352 14.3504 5.656V21.472ZM25.7369 5.2C26.0089 5.2 26.1449 5.912 26.1449 7.336C26.1449 8.744 26.0089 9.448 25.7369 9.448H21.3449V12.184H24.2729C24.5449 12.184 24.6809 12.808 24.6809 14.056C24.6809 15.288 24.5529 15.904 24.2969 15.904H21.3449V21.688C21.3449 21.912 21.0409 22.056 20.4329 22.12C19.8409 22.2 19.3449 22.24 18.9449 22.24L17.8169 22.192C17.0329 22.096 16.6409 21.936 16.6409 21.712V5.824C16.6409 5.568 16.6889 5.4 16.7849 5.32C16.8969 5.24 17.0569 5.2 17.2649 5.2H25.7369ZM35.3053 21.616C35.3053 21.936 34.5133 22.096 32.9293 22.096C31.3453 22.096 30.5533 21.936 30.5533 21.616V9.568H27.6733C27.4013 9.568 27.2093 9.2 27.0973 8.464C27.0493 8.112 27.0253 7.752 27.0253 7.384C27.0253 7.016 27.0493 6.656 27.0973 6.304C27.2093 5.568 27.4013 5.2 27.6733 5.2H38.1133C38.3853 5.2 38.5773 5.568 38.6893 6.304C38.7373 6.656 38.7613 7.016 38.7613 7.384C38.7613 7.752 38.7373 8.112 38.6893 8.464C38.5773 9.2 38.3853 9.568 38.1133 9.568H35.3053V21.616Z" fill="black"/>
</svg>
