<svg width="37" height="37" viewBox="0 0 37 27" fill="none" xmlns="http://www.w3.org/2000/svg">
<path d="M10.0784 16.984L10.1264 13.72C10.1264 13.496 10.3584 13.352 10.8224 13.288C11.2864 13.208 11.6704 13.168 11.9744 13.168L12.9104 13.24C13.5184 13.336 13.8224 13.504 13.8224 13.744L13.7264 21.256C13.4064 21.48 12.7584 21.704 11.7824 21.928C10.8224 22.136 9.71844 22.24 8.47044 22.24C6.15044 22.24 4.27844 21.488 2.85444 19.984C1.43044 18.48 0.718444 16.272 0.718444 13.36C0.718444 10.88 1.41444 8.864 2.80644 7.312C4.19844 5.76 6.12644 4.984 8.59044 4.984C9.71044 4.984 10.7184 5.096 11.6144 5.32C12.5264 5.528 13.1504 5.816 13.4864 6.184C13.5024 6.312 13.5104 6.552 13.5104 6.904C13.5104 7.256 13.3904 7.76 13.1504 8.416C12.9104 9.056 12.6384 9.536 12.3344 9.856C12.0304 10.176 11.8064 10.336 11.6624 10.336C11.5344 10.336 11.3904 10.28 11.2304 10.168C11.0864 10.04 10.7904 9.912 10.3424 9.784C9.89444 9.64 9.46244 9.568 9.04644 9.568C8.05444 9.568 7.24644 9.888 6.62244 10.528C6.01444 11.168 5.71044 12.16 5.71044 13.504C5.71044 14.848 6.02244 15.872 6.64644 16.576C7.28644 17.264 8.01444 17.608 8.83044 17.608C9.66244 17.608 10.0784 17.4 10.0784 16.984ZM17.6887 17.872V9.328H15.9847C15.7127 9.328 15.5207 8.984 15.4087 8.296C15.3607 7.96 15.3367 7.616 15.3367 7.264C15.3367 6.912 15.3607 6.568 15.4087 6.232C15.5207 5.544 15.7127 5.2 15.9847 5.2H24.0487C24.3207 5.2 24.5047 5.544 24.6007 6.232C24.6647 6.568 24.6967 6.912 24.6967 7.264C24.6967 7.616 24.6647 7.96 24.6007 8.296C24.5047 8.984 24.3207 9.328 24.0487 9.328H22.4407V17.872H24.1207C24.3927 17.872 24.5847 18.216 24.6967 18.904C24.7607 19.24 24.7927 19.584 24.7927 19.936C24.7927 20.288 24.7607 20.632 24.6967 20.968C24.5847 21.656 24.3927 22 24.1207 22H16.0327C15.7607 22 15.5767 21.656 15.4807 20.968C15.4167 20.632 15.3847 20.288 15.3847 19.936C15.3847 19.584 15.4167 19.24 15.4807 18.904C15.5767 18.216 15.7607 17.872 16.0327 17.872H17.6887ZM35.3698 5.2C35.6418 5.2 35.7778 5.912 35.7778 7.336C35.7778 8.744 35.6418 9.448 35.3698 9.448H30.9778V12.184H33.9058C34.1778 12.184 34.3138 12.808 34.3138 14.056C34.3138 15.288 34.1858 15.904 33.9298 15.904H30.9778V21.688C30.9778 21.912 30.6738 22.056 30.0658 22.12C29.4738 22.2 28.9778 22.24 28.5778 22.24L27.4498 22.192C26.6658 22.096 26.2738 21.936 26.2738 21.712V5.824C26.2738 5.568 26.3218 5.4 26.4178 5.32C26.5298 5.24 26.6898 5.2 26.8978 5.2H35.3698Z" fill="black"/>
</svg>
